HIERARCHY
ROOT Hips
{
 OFFSET 0.000000 0.000000 0.000000
 CHANNELS 6 Xposition Yposition Zposition Yrotation Xrotation Zrotation
 JOINT Chest
 {
  OFFSET 0.000000 9.588913 -0.003946
  CHANNELS 3 Yrotation Xrotation Zrotation
  JOINT Chest2
  {
   OFFSET 0.000000 9.541882 0.008053
   CHANNELS 3 Yrotation Xrotation Zrotation
   JOINT Chest3
   {
    OFFSET 0.000000 9.501360 0.000000
    CHANNELS 3 Yrotation Xrotation Zrotation
    JOINT Chest4
    {
     OFFSET 0.000000 9.491660 0.000000
     CHANNELS 3 Yrotation Xrotation Zrotation
     JOINT Neck
     {
      OFFSET 0.000000 14.331917 0.000000
      CHANNELS 3 Yrotation Xrotation Zrotation
      JOINT Head
      {
       OFFSET 0.000000 8.884799 0.017034
       CHANNELS 3 Yrotation Xrotation Zrotation
       End Site
       {
        OFFSET 0.000000 16.896195 0.008993
       }
      }
     }
     JOINT RightCollar
     {
      OFFSET -2.923010 9.499495 0.000000
      CHANNELS 3 Yrotation Xrotation Zrotation
      JOINT RightShoulder
      {
       OFFSET -13.795216 0.000000 0.000000
       CHANNELS 3 Yrotation Xrotation Zrotation
       JOINT RightElbow
       {
        OFFSET -30.272209 0.000000 0.000000
        CHANNELS 3 Yrotation Xrotation Zrotation
        JOINT RightWrist
        {
         OFFSET -24.478199 0.000000 0.000000
         CHANNELS 3 Yrotation Xrotation Zrotation
         End Site
         {
          OFFSET -18.090752 0.000000 0.000000
         }
        }
       }
      }
     }
     JOINT LeftCollar
     {
      OFFSET 2.923010 9.499495 0.000000
      CHANNELS 3 Yrotation Xrotation Zrotation
      JOINT LeftShoulder
      {
       OFFSET 13.795216 0.000000 0.000000
       CHANNELS 3 Yrotation Xrotation Zrotation
       JOINT LeftElbow
       {
        OFFSET 30.272209 0.000000 0.000000
        CHANNELS 3 Yrotation Xrotation Zrotation
        JOINT LeftWrist
        {
         OFFSET 24.478199 0.000000 0.000000
         CHANNELS 3 Yrotation Xrotation Zrotation
         End Site
         {
          OFFSET 18.090752 0.000000 0.000000
         }
        }
       }
      }
     }
    }
   }
  }
 }
 JOINT RightHip
 {
  OFFSET -7.826875 0.019532 0.001973
  CHANNELS 3 Yrotation Xrotation Zrotation
  JOINT RightKnee
  {
   OFFSET 0.000000 -40.546152 -0.001885
   CHANNELS 3 Yrotation Xrotation Zrotation
   JOINT RightAnkle
   {
    OFFSET 0.000000 -39.417092 -0.003189
    CHANNELS 3 Yrotation Xrotation Zrotation
    JOINT RightToe
    {
     OFFSET 0.000000 -7.579396 17.243563
     CHANNELS 3 Yrotation Xrotation Zrotation
     End Site
     {
      OFFSET 0.000000 -1.500329 6.694466
     }
    }
   }
  }
 }
 JOINT LeftHip
 {
  OFFSET 7.826875 0.019532 0.001973
  CHANNELS 3 Yrotation Xrotation Zrotation
  JOINT LeftKnee
  {
   OFFSET 0.000000 -40.546152 -0.001885
   CHANNELS 3 Yrotation Xrotation Zrotation
   JOINT LeftAnkle
   {
    OFFSET 0.000000 -39.417092 -0.003189
    CHANNELS 3 Yrotation Xrotation Zrotation
    JOINT LeftToe
    {
     OFFSET 0.000000 -7.579396 17.243563
     CHANNELS 3 Yrotation Xrotation Zrotation
     End Site
     {
      OFFSET 0.000000 -1.500329 6.694466
     }
    }
   }
  }
 }
}
MOTION
Frames: 14
Frame Time: 0.008333
65.790113 85.738154 -108.940135 143.942549 3.595805 -0.664887 1.243136 7.307619 0.160008 0.777745 4.287184 0.250039 0.975799 5.358416 0.321898 0.777746 4.287185 0.250039 -4.093022 16.302825 -0.497681 -7.423126 -5.447868 0.517253 8.048936 2.845036 -9.247661 -35.041841 -12.665651 73.714047 59.578396 -44.566756 31.957356 9.848830 -6.495183 -1.586451 2.914534 -1.768801 -1.116213 17.914451 -8.539142 -79.151429 -21.108727 -22.976682 -18.663195 -28.322223 -12.063423 4.594194 -32.973463 -4.372258 -17.011945 -6.306617 6.865733 -1.889207 -0.148484 1.334805 20.190768 0.295179 -0.922561 0.067472 -11.706574 -17.951489 9.009769 2.112184 24.742602 5.475581 -5.400052 -11.479271 -10.114279 0.364800 0.885255 0.102444
65.711495 85.739745 -109.070966 143.844168 3.561296 -0.690792 1.245567 7.311447 0.114369 0.779816 4.293504 0.236984 0.978243 5.366341 0.305607 0.779817 4.293504 0.236984 -4.110875 16.332228 -0.528490 -7.444365 -5.394360 0.464737 8.255573 2.585233 -9.210513 -35.468929 -13.659792 73.458531 60.267914 -44.988563 31.850637 9.974803 -6.478087 -1.671702 2.976565 -1.712687 -1.129332 17.975745 -8.416511 -79.201597 -20.081785 -22.785780 -17.105823 -28.427947 -11.583321 5.358543 -33.017616 -4.380950 -17.109335 -6.316928 6.766831 -1.889283 0.032406 1.620097 20.297593 0.310827 -1.016763 0.065414 -11.670634 -17.918698 8.942070 2.122615 24.848496 5.448058 -5.360894 -11.610889 -9.990623 0.368533 0.881152 0.108036
65.640537 85.740983 -109.211367 143.722593 3.521123 -0.724007 1.268641 7.325973 0.073264 0.787071 4.298607 0.221502 0.987140 5.372749 0.286337 0.787071 4.298607 0.221502 -4.127974 16.356276 -0.550845 -7.467382 -5.350330 0.427930 8.439557 2.310097 -9.189814 -35.871932 -14.620531 73.267872 60.861195 -45.533882 31.741365 10.182418 -6.542036 -1.850716 3.032304 -1.608789 -1.128471 17.957861 -8.297557 -79.184525 -18.946656 -22.596647 -15.661764 -27.850946 -11.016820 6.009433 -33.059827 -4.375211 -17.206559 -6.307334 6.650510 -1.883120 0.212639 1.917043 20.395777 0.324921 -1.100953 0.071736 -11.616100 -17.882071 8.878574 2.190452 24.980118 5.443204 -5.366554 -11.757799 -9.868130 0.368432 0.876427 0.116661
65.578588 85.740865 -109.360921 143.581041 3.469290 -0.769312 1.314632 7.355941 0.039685 0.799316 4.303602 0.205861 1.002279 5.379018 0.266928 0.799317 4.303602 0.205862 -4.144556 16.372967 -0.564834 -7.492647 -5.319488 0.406862 8.603836 2.030488 -9.177963 -36.274322 -15.573583 73.113948 61.340979 -46.182415 31.653238 10.464251 -6.726683 -2.118272 3.086492 -1.466372 -1.105444 17.997361 -8.206749 -79.122351 -17.701620 -22.252765 -14.400303 -26.655479 -10.402691 6.477661 -33.093736 -4.341734 -17.300481 -6.279205 6.513780 -1.874909 0.384021 2.223580 20.487728 0.337573 -1.175245 0.084798 -11.517751 -17.830721 8.817925 2.272571 25.125456 5.444078 -5.394121 -11.925662 -9.739039 0.366164 0.881794 0.124674
65.525907 85.738849 -109.519262 143.423701 3.402631 -0.828859 1.379348 7.397062 0.013167 0.817226 4.309821 0.191606 1.024518 5.386812 0.249322 0.817226 4.309821 0.191606 -4.160505 16.382166 -0.573130 -7.519001 -5.302240 0.396539 8.742408 1.777497 -9.172928 -36.687365 -16.553859 72.973117 61.694010 -46.936122 31.623288 10.863140 -7.055810 -2.419363 3.149191 -1.288670 -1.051534 18.145338 -8.130269 -79.040540 -16.394294 -21.662814 -13.345372 -24.950731 -9.735471 6.698677 -33.116590 -4.275297 -17.390214 -6.236869 6.358919 -1.867819 0.545787 2.537300 20.576524 0.349259 -1.241548 0.102431 -11.375875 -17.757917 8.765652 2.328211 25.279034 5.428298 -5.419064 -12.115793 -9.596135 0.365668 0.900051 0.129034
65.480631 85.734907 -109.686113 143.248864 3.323511 -0.897850 1.454366 7.438653 -0.012803 0.841961 4.317475 0.179221 1.055320 5.396393 0.234140 0.841962 4.317474 0.179221 -4.173027 16.384652 -0.580985 -7.539387 -5.297564 0.386207 8.858502 1.566941 -9.173198 -37.104617 -17.574919 72.815178 61.895824 -47.799913 31.679332 11.388006 -7.518656 -2.708641 3.233211 -1.074721 -0.964449 18.369785 -8.028889 -78.944978 -15.115419 -20.837764 -12.494360 -22.857597 -8.957957 6.637644 -33.118586 -4.182779 -17.479311 -6.185425 6.191996 -1.862991 0.697271 2.854985 20.662591 0.359812 -1.300700 0.124038 -11.203072 -17.666211 8.721747 2.337392 25.442425 5.381891 -5.417156 -12.323650 -9.435386 0.363789 0.926356 0.127644
65.440090 85.729381 -109.862106 143.060110 3.231306 -0.966826 1.531577 7.477011 -0.046756 0.871875 4.327059 0.168637 1.092622 5.408381 0.221278 0.871876 4.327058 0.168638 -4.177101 16.379567 -0.592409 -7.543116 -5.307493 0.366735 8.967942 1.393854 -9.174746 -37.514856 -18.629408 72.611508 61.925952 -48.759811 31.824679 11.938151 -8.053104 -2.964494 3.352187 -0.831049 -0.847690 18.568748 -7.850703 -78.819606 -13.965888 -19.902083 -11.833231 -20.481604 -7.995973 6.324903 -33.094233 -4.069388 -17.578425 -6.131025 6.017004 -1.859142 0.836004 3.175043 20.746585 0.369464 -1.353248 0.148550 -11.014371 -17.555799 8.675575 2.309882 25.613670 5.309029 -5.382166 -12.542002 -9.258069 0.353689 0.956659 0.120673
65.401719 85.722888 -110.047922 142.869780 3.123831 -1.027765 1.605789 7.515989 -0.094207 0.903132 4.339303 0.159265 1.131620 5.423691 0.209958 0.903133 4.339301 0.159267 -4.166805 16.365852 -0.606544 -7.519530 -5.334186 0.337698 9.086443 1.230441 -9.164246 -37.897202 -19.698735 72.323858 61.829277 -49.798228 32.018360 12.459889 -8.601199 -3.142306 3.512068 -0.569025 -0.702012 18.611209 -7.535863 -78.657818 -13.039289 -18.983301 -11.326743 -17.953047 -6.833483 5.836323 -33.048483 -3.938064 -17.699522 -6.083975 5.838894 -1.851996 0.964880 3.496931 20.828680 0.379439 -1.401433 0.174393 -10.823396 -17.424515 8.611672 2.264726 25.785618 5.226912 -5.317431 -12.763096 -9.071251 0.333652 0.991474 0.110049
65.362064 85.716230 -110.243488 142.689578 3.005413 -1.071018 1.673572 7.555216 -0.160001 0.934080 4.354097 0.149086 1.170224 5.442194 0.197632 0.934081 4.354096 0.149088 -4.141089 16.345306 -0.619263 -7.468056 -5.374093 0.306264 9.216516 1.040799 -9.134476 -38.232283 -20.753722 71.922182 61.689744 -50.863156 32.186628 12.952136 -9.112952 -3.226316 3.702877 -0.280732 -0.516097 18.415162 -7.064452 -78.480508 -12.376954 -18.068226 -10.908988 -15.467617 -5.582495 5.228745 -32.987994 -3.798767 -17.851804 -6.052628 5.661273 -1.837683 1.088027 3.820501 20.908231 0.390563 -1.446749 0.201012 -10.636060 -17.279832 8.513763 2.191238 25.954640 5.141104 -5.211263 -12.977001 -8.878196 0.302347 1.029356 0.095080
65.318693 85.710237 -110.447676 142.524127 2.882142 -1.094175 1.736108 7.592652 -0.243695 0.965045 4.369962 0.136556 1.208821 5.462043 0.182370 0.965045 4.369962 0.136558 -4.105957 16.322973 -0.626144 -7.401205 -5.417344 0.282438 9.347668 0.815708 -9.101895 -38.535934 -21.777395 71.440391 61.581691 -51.868000 32.258797 13.413431 -9.548279 -3.246560 3.911914 0.046527 -0.280464 17.990751 -6.472675 -78.318512 -11.938879 -17.035017 -10.499302 -13.237932 -4.437218 4.510873 -32.916919 -3.659054 -18.034391 -6.035096 5.484458 -1.814527 1.203862 4.147847 20.983024 0.402604 -1.491104 0.229264 -10.448177 -17.135007 8.378740 2.063625 26.128053 5.043719 -5.053415 -13.178371 -8.674555 0.257411 1.065438 0.072656
65.268409 85.705718 -110.657728 142.383978 2.772097 -1.093860 1.790145 7.615971 -0.347597 0.996196 4.384656 0.121734 1.247622 5.480437 0.164243 0.996196 4.384657 0.121735 -4.069692 16.304370 -0.623663 -7.335400 -5.453173 0.275352 9.471094 0.568217 -9.087731 -38.855607 -22.774595 70.960469 61.539848 -52.748813 32.209843 13.830036 -9.887091 -3.251509 4.133582 0.381279 -0.014497 17.407483 -5.794405 -78.178789 -11.655725 -15.805347 -10.054890 -11.410364 -3.517503 3.719793 -32.846590 -3.539710 -18.239989 -6.024275 5.303911 -1.779766 1.308018 4.523553 21.042474 0.427442 -1.568656 0.266258 -10.262417 -17.016677 8.211382 1.899069 26.313503 4.940549 -4.889277 -13.392878 -8.464348 0.223703 1.119462 0.051842
65.216801 85.703245 -110.869796 142.270638 2.668256 -1.109612 1.849534 7.636548 -0.430365 1.028808 4.396485 0.105913 1.288236 5.495254 0.144879 1.028809 4.396487 0.105915 -4.040027 16.293058 -0.609336 -7.285765 -5.474539 0.292139 9.578105 0.320541 -9.100470 -39.211507 -23.753111 70.539713 61.559788 -53.504772 32.051696 14.184742 -10.142452 -3.294904 4.357146 0.675112 0.252949 16.764665 -5.052288 -78.060014 -11.485809 -14.412999 -9.613471 -10.009322 -2.831117 2.992225 -32.779183 -3.412177 -18.431680 -6.017974 5.139978 -1.741588 1.398384 4.866831 21.096263 0.442298 -1.625301 0.302535 -10.090158 -16.914693 8.061261 1.754957 26.507994 4.848434 -4.761847 -13.567951 -8.245819 0.190438 1.141905 0.027984
65.162328 85.703216 -111.082015 142.185895 2.582477 -1.137561 1.913876 7.645329 -0.496710 1.063962 4.404073 0.091182 1.332038 5.504768 0.126897 1.063962 4.404075 0.091183 -4.019273 16.290724 -0.582974 -7.256608 -5.478222 0.333888 9.663546 0.093938 -9.133479 -39.561953 -24.710913 70.172382 61.608137 -54.191213 31.797669 14.498100 -10.360093 -3.418694 4.578851 0.936245 0.517593 16.189948 -4.306545 -77.984068 -11.390980 -12.979115 -9.261077 -8.962801 -2.322806 2.464708 -32.711038 -3.289503 -18.603296 -6.010557 4.987320 -1.701568 1.461116 5.218741 21.137167 0.460454 -1.691301 0.343186 -9.928901 -16.839742 7.935836 1.669563 26.704619 4.772417 -4.729629 -13.731772 -8.020386 0.178586 1.158005 0.011425
65.106795 85.705656 -111.295579 142.109728 2.501834 -1.178390 1.992045 7.652215 -0.546147 1.101682 4.406644 0.079146 1.379080 5.508004 0.112303 1.101682 4.406647 0.079146 -4.002339 16.297573 -0.551291 -7.236107 -5.464419 0.386350 9.743623 -0.096514 -9.176686 -39.851225 -25.647426 69.809615 61.622433 -54.931068 31.483419 14.775496 -10.574972 -3.636539 4.814848 1.212740 0.785852 15.791387 -3.645680 -77.980055 -11.300381 -11.657886 -9.050872 -8.177046 -1.919619 2.156356 -32.617098 -3.157419 -18.759205 -5.997037 4.841908 -1.660974 1.484034 5.579186 21.160257 0.481674 -1.764615 0.391000 -9.741253 -16.774235 7.829279 1.631355 26.898011 4.708221 -4.789724 -13.891084 -7.779910 0.175983 1.171727 -0.002139
